<svg width="50" height="50" viewBox="0 0 50 50" fill="none" xmlns="http://www.w3.org/2000/svg">
<path d="M35.4199 1.88669C37.8613 -0.554517 41.8261 -0.554517 44.2676 1.88669L48.1152 5.73728C50.5566 8.17771 50.5566 12.1386 48.1152 14.5801L43.3886 19.3066L30.6933 6.61326L35.4199 1.88669ZM41.1816 21.5136L18.4082 44.2773C17.3926 45.2929 16.1328 46.0449 14.7558 46.4453L3.00486 49.9023C2.1826 50.1465 1.29295 49.9219 0.686501 49.2285C0.0800365 48.7109 -0.146702 47.8222 0.0952904 46.9922L3.55174 35.2441C3.95799 33.8672 4.7031 32.6074 5.7197 31.5918L28.4863 8.82224L41.1816 21.5136Z" fill="#333333"/>
</svg>
