<svg width="50" height="50" viewBox="0 0 50 50" fill="none" xmlns="http://www.w3.org/2000/svg">
<path d="M0 25C0 11.1914 11.1914 0 25 0C38.8086 0 50 11.1914 50 25C50 38.8086 38.8086 50 25 50C11.1914 50 0 38.8086 0 25ZM25 35.9375C26.2988 35.9375 27.3438 34.8926 27.3438 33.5938V27.3438H33.5938C34.8926 27.3438 35.9375 26.2988 35.9375 25C35.9375 23.7012 34.8926 22.6562 33.5938 22.6562H27.3438V16.4062C27.3438 15.1074 26.2988 14.0625 25 14.0625C23.7012 14.0625 22.6562 15.1074 22.6562 16.4062V22.6562H16.4062C15.1074 22.6562 14.0625 23.7012 14.0625 25C14.0625 26.2988 15.1074 27.3438 16.4062 27.3438H22.6562V33.5938C22.6562 34.8926 23.7012 35.9375 25 35.9375Z" fill="#333333"/>
</svg>
