<svg width="50" height="50" viewBox="0 0 50 50" fill="none" xmlns="http://www.w3.org/2000/svg">
<path d="M16.3281 1.72754C16.8555 0.66875 17.9395 0 19.1211 0H30.8789C32.0605 0 33.1445 0.66875 33.6719 1.72754L34.375 3.125H43.75C45.4785 3.125 46.875 4.52441 46.875 6.25C46.875 7.97559 45.4785 9.375 43.75 9.375H6.25C4.52441 9.375 3.125 7.97559 3.125 6.25C3.125 4.52441 4.52441 3.125 6.25 3.125H15.625L16.3281 1.72754ZM41.6797 45.5176C41.5234 48.0762 39.4824 50 37.002 50H12.998C10.5225 50 8.47363 48.0762 8.31934 45.5176L6.16211 12.5H43.75L41.6797 45.5176Z" fill="#333333"/>
</svg>
